<svg width="20" height="20" fill="none" xmlns="http://www.w3.org/2000/svg"><g clip-path="url(#clip0_1244_1625)"><path fill-rule="evenodd" clip-rule="evenodd" d="M16.216 3.543a1.2 1.2 0 011.65 1.301L16.05 15.85c-.176 1.061-1.34 1.67-2.314 1.141a46.744 46.744 0 01-3.112-1.835c-.544-.356-2.21-1.496-2.006-2.307.176-.694 2.976-3.3 4.576-4.85.628-.609.342-.96-.4-.4-1.842 1.39-4.798 3.505-5.776 4.1-.862.525-1.312.615-1.85.525-.98-.163-1.89-.416-2.632-.724-1.003-.416-.954-1.795 0-2.197l13.68-5.76z" fill="#4675EB"/></g><defs><clipPath id="clip0_1244_1625"><path fill="#fff" transform="translate(.396)" d="M0 0h19.2v19.2H0z"/></clipPath></defs></svg>