<svg width="24" height="24" fill="none" xmlns="http://www.w3.org/2000/svg"><path fill-rule="evenodd" clip-rule="evenodd" d="M16.676 2.625a21.9 21.9 0 00-9.555 0l-.339.075a4.905 4.905 0 00-3.684 3.58 19.467 19.467 0 000 9.577 4.905 4.905 0 003.444 3.52l.465 2.776a.5.5 0 00.826.29L10.564 20c2.05.125 4.108-.039 6.112-.487l.34-.075a4.905 4.905 0 003.684-3.58 19.47 19.47 0 000-9.577 4.905 4.905 0 00-3.685-3.58l-.339-.076zM7.966 6.2a.822.822 0 00-.538.106h-.014c-.375.22-.713.497-1 .823-.24.277-.37.557-.405.827-.02.16-.006.322.041.475l.018.01c.27.793.622 1.556 1.052 2.274a13.373 13.373 0 002.03 2.775l.024.034.038.028.023.027.028.024a13.561 13.561 0 002.782 2.04c1.155.63 1.856.926 2.277 1.05v.006c.123.038.235.055.348.055a1.61 1.61 0 00.964-.414c.325-.288.6-.627.814-1.004v-.007c.201-.38.133-.738-.157-.98a12.128 12.128 0 00-1.88-1.35c-.449-.244-.904-.097-1.088.15l-.393.495c-.202.246-.568.212-.568.212l-.01.006c-2.73-.697-3.46-3.462-3.46-3.462s-.034-.376.22-.568l.491-.396c.236-.192.4-.646.147-1.094a11.807 11.807 0 00-1.347-1.88.748.748 0 00-.44-.263l.002.001zm4.613-1.202a.5.5 0 100 1c1.265 0 2.315.413 3.146 1.205.427.433.76.946.978 1.508.22.563.32 1.164.293 1.766a.502.502 0 001 .042 5.36 5.36 0 00-.36-2.17 5.44 5.44 0 00-1.205-1.854l-.01-.01c-1.03-.985-2.336-1.487-3.842-1.487zm-.034 1.644a.5.5 0 100 1h.017c.912.065 1.576.37 2.041.868.477.514.724 1.153.705 1.943a.5.5 0 001 .023c.024-1.037-.31-1.932-.972-2.646v-.002c-.677-.726-1.606-1.11-2.724-1.185l-.017-.002-.05.001zm-.019 1.675a.5.5 0 10-.052.998c.418.022.685.148.853.317.17.17.295.443.318.87a.5.5 0 10.998-.053c-.032-.6-.22-1.13-.605-1.52-.387-.39-.914-.58-1.512-.612z" fill="#4675EB"/></svg>