<svg width="20" height="20" fill="none" xmlns="http://www.w3.org/2000/svg"><path fill-rule="evenodd" clip-rule="evenodd" d="M7.945 7.567h2.971v1.48c.428-.85 1.526-1.616 3.175-1.616 3.16 0 3.911 1.695 3.911 4.804v5.757h-3.2v-5.05c0-1.77-.428-2.768-1.518-2.768-1.51 0-2.139 1.076-2.139 2.768v5.05h-3.2V7.567zm-5.487 10.29h3.2V7.43h-3.2v10.425zM6.116 4.031a2.024 2.024 0 01-.602 1.442 2.072 2.072 0 01-2.91 0 2.038 2.038 0 01-.602-1.442c0-.541.216-1.06.602-1.442a2.066 2.066 0 012.91 0c.386.382.602.9.602 1.442z" fill="#4675EB"/></svg>